<mxfile host="app.diagrams.net" agent="Mozilla/5.0 (Windows NT 10.0; Win64; x64) AppleWebKit/537.36 (KHTML, like Gecko) Chrome/132.0.0.0 Safari/537.36" version="26.0.6">
  <diagram name="1 oldal" id="_skgcFD3ea4nREvTVmyn">
    <mxGraphModel dx="1050" dy="1726" grid="1" gridSize="10" guides="1" tooltips="1" connect="1" arrows="1" fold="1" page="1" pageScale="1" pageWidth="827" pageHeight="1169" math="0" shadow="0">
      <root>
        <mxCell id="0" />
        <mxCell id="1" parent="0" />
        <mxCell id="H_SOr6fTUz821yDSNW8F-13" value="ToolFactory&lt;div&gt;&lt;br&gt;&lt;/div&gt;" style="swimlane;fontStyle=1;align=center;verticalAlign=top;childLayout=stackLayout;horizontal=1;startSize=26;horizontalStack=0;resizeParent=1;resizeParentMax=0;resizeLast=0;collapsible=1;marginBottom=0;whiteSpace=wrap;html=1;fillColor=#d5e8d4;strokeColor=#82b366;" vertex="1" parent="1">
          <mxGeometry x="515" y="107" width="160" height="120" as="geometry" />
        </mxCell>
        <mxCell id="H_SOr6fTUz821yDSNW8F-14" value="&amp;nbsp;" style="text;strokeColor=none;fillColor=none;align=left;verticalAlign=top;spacingLeft=4;spacingRight=4;overflow=hidden;rotatable=0;points=[[0,0.5],[1,0.5]];portConstraint=eastwest;whiteSpace=wrap;html=1;" vertex="1" parent="H_SOr6fTUz821yDSNW8F-13">
          <mxGeometry y="26" width="160" height="26" as="geometry" />
        </mxCell>
        <mxCell id="H_SOr6fTUz821yDSNW8F-15" value="" style="line;strokeWidth=1;fillColor=none;align=left;verticalAlign=middle;spacingTop=-1;spacingLeft=3;spacingRight=3;rotatable=0;labelPosition=right;points=[];portConstraint=eastwest;strokeColor=inherit;" vertex="1" parent="H_SOr6fTUz821yDSNW8F-13">
          <mxGeometry y="52" width="160" height="8" as="geometry" />
        </mxCell>
        <mxCell id="H_SOr6fTUz821yDSNW8F-16" value="+ CreatePhone(): Phone&lt;div&gt;+ CreateTablet(): Tablet&lt;/div&gt;" style="text;strokeColor=none;fillColor=none;align=left;verticalAlign=top;spacingLeft=4;spacingRight=4;overflow=hidden;rotatable=0;points=[[0,0.5],[1,0.5]];portConstraint=eastwest;whiteSpace=wrap;html=1;" vertex="1" parent="H_SOr6fTUz821yDSNW8F-13">
          <mxGeometry y="60" width="160" height="60" as="geometry" />
        </mxCell>
        <mxCell id="H_SOr6fTUz821yDSNW8F-17" value="Tablet" style="swimlane;fontStyle=1;align=center;verticalAlign=top;childLayout=stackLayout;horizontal=1;startSize=26;horizontalStack=0;resizeParent=1;resizeParentMax=0;resizeLast=0;collapsible=1;marginBottom=0;whiteSpace=wrap;html=1;fillColor=#d5e8d4;strokeColor=#82b366;" vertex="1" parent="1">
          <mxGeometry x="60" y="124" width="160" height="86" as="geometry" />
        </mxCell>
        <mxCell id="H_SOr6fTUz821yDSNW8F-18" value="&amp;nbsp;" style="text;strokeColor=none;fillColor=none;align=left;verticalAlign=top;spacingLeft=4;spacingRight=4;overflow=hidden;rotatable=0;points=[[0,0.5],[1,0.5]];portConstraint=eastwest;whiteSpace=wrap;html=1;" vertex="1" parent="H_SOr6fTUz821yDSNW8F-17">
          <mxGeometry y="26" width="160" height="26" as="geometry" />
        </mxCell>
        <mxCell id="H_SOr6fTUz821yDSNW8F-19" value="" style="line;strokeWidth=1;fillColor=none;align=left;verticalAlign=middle;spacingTop=-1;spacingLeft=3;spacingRight=3;rotatable=0;labelPosition=right;points=[];portConstraint=eastwest;strokeColor=inherit;" vertex="1" parent="H_SOr6fTUz821yDSNW8F-17">
          <mxGeometry y="52" width="160" height="8" as="geometry" />
        </mxCell>
        <mxCell id="H_SOr6fTUz821yDSNW8F-20" value="+ tabletAction(): String" style="text;strokeColor=none;fillColor=none;align=left;verticalAlign=top;spacingLeft=4;spacingRight=4;overflow=hidden;rotatable=0;points=[[0,0.5],[1,0.5]];portConstraint=eastwest;whiteSpace=wrap;html=1;" vertex="1" parent="H_SOr6fTUz821yDSNW8F-17">
          <mxGeometry y="60" width="160" height="26" as="geometry" />
        </mxCell>
        <mxCell id="H_SOr6fTUz821yDSNW8F-21" value="Phone" style="swimlane;fontStyle=1;align=center;verticalAlign=top;childLayout=stackLayout;horizontal=1;startSize=26;horizontalStack=0;resizeParent=1;resizeParentMax=0;resizeLast=0;collapsible=1;marginBottom=0;whiteSpace=wrap;html=1;fillColor=#d5e8d4;strokeColor=#82b366;" vertex="1" parent="1">
          <mxGeometry x="270" y="124" width="160" height="86" as="geometry" />
        </mxCell>
        <mxCell id="H_SOr6fTUz821yDSNW8F-22" value="&amp;nbsp;" style="text;strokeColor=none;fillColor=none;align=left;verticalAlign=top;spacingLeft=4;spacingRight=4;overflow=hidden;rotatable=0;points=[[0,0.5],[1,0.5]];portConstraint=eastwest;whiteSpace=wrap;html=1;" vertex="1" parent="H_SOr6fTUz821yDSNW8F-21">
          <mxGeometry y="26" width="160" height="26" as="geometry" />
        </mxCell>
        <mxCell id="H_SOr6fTUz821yDSNW8F-23" value="" style="line;strokeWidth=1;fillColor=none;align=left;verticalAlign=middle;spacingTop=-1;spacingLeft=3;spacingRight=3;rotatable=0;labelPosition=right;points=[];portConstraint=eastwest;strokeColor=inherit;" vertex="1" parent="H_SOr6fTUz821yDSNW8F-21">
          <mxGeometry y="52" width="160" height="8" as="geometry" />
        </mxCell>
        <mxCell id="H_SOr6fTUz821yDSNW8F-24" value="+ phoneAction(): String" style="text;strokeColor=none;fillColor=none;align=left;verticalAlign=top;spacingLeft=4;spacingRight=4;overflow=hidden;rotatable=0;points=[[0,0.5],[1,0.5]];portConstraint=eastwest;whiteSpace=wrap;html=1;" vertex="1" parent="H_SOr6fTUz821yDSNW8F-21">
          <mxGeometry y="60" width="160" height="26" as="geometry" />
        </mxCell>
        <mxCell id="H_SOr6fTUz821yDSNW8F-25" value="SamsungPhone" style="swimlane;fontStyle=1;align=center;verticalAlign=top;childLayout=stackLayout;horizontal=1;startSize=26;horizontalStack=0;resizeParent=1;resizeParentMax=0;resizeLast=0;collapsible=1;marginBottom=0;whiteSpace=wrap;html=1;fillColor=#d5e8d4;strokeColor=#82b366;" vertex="1" parent="1">
          <mxGeometry x="270" width="160" height="86" as="geometry" />
        </mxCell>
        <mxCell id="H_SOr6fTUz821yDSNW8F-26" value="&amp;nbsp;" style="text;strokeColor=none;fillColor=none;align=left;verticalAlign=top;spacingLeft=4;spacingRight=4;overflow=hidden;rotatable=0;points=[[0,0.5],[1,0.5]];portConstraint=eastwest;whiteSpace=wrap;html=1;" vertex="1" parent="H_SOr6fTUz821yDSNW8F-25">
          <mxGeometry y="26" width="160" height="26" as="geometry" />
        </mxCell>
        <mxCell id="H_SOr6fTUz821yDSNW8F-27" value="" style="line;strokeWidth=1;fillColor=none;align=left;verticalAlign=middle;spacingTop=-1;spacingLeft=3;spacingRight=3;rotatable=0;labelPosition=right;points=[];portConstraint=eastwest;strokeColor=inherit;" vertex="1" parent="H_SOr6fTUz821yDSNW8F-25">
          <mxGeometry y="52" width="160" height="8" as="geometry" />
        </mxCell>
        <mxCell id="H_SOr6fTUz821yDSNW8F-28" value="&amp;nbsp;" style="text;strokeColor=none;fillColor=none;align=left;verticalAlign=top;spacingLeft=4;spacingRight=4;overflow=hidden;rotatable=0;points=[[0,0.5],[1,0.5]];portConstraint=eastwest;whiteSpace=wrap;html=1;" vertex="1" parent="H_SOr6fTUz821yDSNW8F-25">
          <mxGeometry y="60" width="160" height="26" as="geometry" />
        </mxCell>
        <mxCell id="H_SOr6fTUz821yDSNW8F-29" value="ApplePhone" style="swimlane;fontStyle=1;align=center;verticalAlign=top;childLayout=stackLayout;horizontal=1;startSize=26;horizontalStack=0;resizeParent=1;resizeParentMax=0;resizeLast=0;collapsible=1;marginBottom=0;whiteSpace=wrap;html=1;fillColor=#d5e8d4;strokeColor=#82b366;" vertex="1" parent="1">
          <mxGeometry x="270" y="260" width="160" height="86" as="geometry" />
        </mxCell>
        <mxCell id="H_SOr6fTUz821yDSNW8F-30" value="&amp;nbsp;" style="text;strokeColor=none;fillColor=none;align=left;verticalAlign=top;spacingLeft=4;spacingRight=4;overflow=hidden;rotatable=0;points=[[0,0.5],[1,0.5]];portConstraint=eastwest;whiteSpace=wrap;html=1;" vertex="1" parent="H_SOr6fTUz821yDSNW8F-29">
          <mxGeometry y="26" width="160" height="26" as="geometry" />
        </mxCell>
        <mxCell id="H_SOr6fTUz821yDSNW8F-31" value="" style="line;strokeWidth=1;fillColor=none;align=left;verticalAlign=middle;spacingTop=-1;spacingLeft=3;spacingRight=3;rotatable=0;labelPosition=right;points=[];portConstraint=eastwest;strokeColor=inherit;" vertex="1" parent="H_SOr6fTUz821yDSNW8F-29">
          <mxGeometry y="52" width="160" height="8" as="geometry" />
        </mxCell>
        <mxCell id="H_SOr6fTUz821yDSNW8F-32" value="&amp;nbsp;" style="text;strokeColor=none;fillColor=none;align=left;verticalAlign=top;spacingLeft=4;spacingRight=4;overflow=hidden;rotatable=0;points=[[0,0.5],[1,0.5]];portConstraint=eastwest;whiteSpace=wrap;html=1;" vertex="1" parent="H_SOr6fTUz821yDSNW8F-29">
          <mxGeometry y="60" width="160" height="26" as="geometry" />
        </mxCell>
        <mxCell id="H_SOr6fTUz821yDSNW8F-33" value="AppleTablet" style="swimlane;fontStyle=1;align=center;verticalAlign=top;childLayout=stackLayout;horizontal=1;startSize=26;horizontalStack=0;resizeParent=1;resizeParentMax=0;resizeLast=0;collapsible=1;marginBottom=0;whiteSpace=wrap;html=1;fillColor=#d5e8d4;strokeColor=#82b366;" vertex="1" parent="1">
          <mxGeometry x="60" y="260" width="160" height="86" as="geometry" />
        </mxCell>
        <mxCell id="H_SOr6fTUz821yDSNW8F-34" value="&amp;nbsp;" style="text;strokeColor=none;fillColor=none;align=left;verticalAlign=top;spacingLeft=4;spacingRight=4;overflow=hidden;rotatable=0;points=[[0,0.5],[1,0.5]];portConstraint=eastwest;whiteSpace=wrap;html=1;" vertex="1" parent="H_SOr6fTUz821yDSNW8F-33">
          <mxGeometry y="26" width="160" height="26" as="geometry" />
        </mxCell>
        <mxCell id="H_SOr6fTUz821yDSNW8F-35" value="" style="line;strokeWidth=1;fillColor=none;align=left;verticalAlign=middle;spacingTop=-1;spacingLeft=3;spacingRight=3;rotatable=0;labelPosition=right;points=[];portConstraint=eastwest;strokeColor=inherit;" vertex="1" parent="H_SOr6fTUz821yDSNW8F-33">
          <mxGeometry y="52" width="160" height="8" as="geometry" />
        </mxCell>
        <mxCell id="H_SOr6fTUz821yDSNW8F-36" value="&amp;nbsp;" style="text;strokeColor=none;fillColor=none;align=left;verticalAlign=top;spacingLeft=4;spacingRight=4;overflow=hidden;rotatable=0;points=[[0,0.5],[1,0.5]];portConstraint=eastwest;whiteSpace=wrap;html=1;" vertex="1" parent="H_SOr6fTUz821yDSNW8F-33">
          <mxGeometry y="60" width="160" height="26" as="geometry" />
        </mxCell>
        <mxCell id="H_SOr6fTUz821yDSNW8F-42" style="edgeStyle=orthogonalEdgeStyle;rounded=0;orthogonalLoop=1;jettySize=auto;html=1;endArrow=block;endFill=0;fillColor=#d5e8d4;strokeColor=#82b366;strokeWidth=2;endSize=10;" edge="1" parent="1" source="H_SOr6fTUz821yDSNW8F-37" target="H_SOr6fTUz821yDSNW8F-17">
          <mxGeometry relative="1" as="geometry" />
        </mxCell>
        <mxCell id="H_SOr6fTUz821yDSNW8F-37" value="Samsungtablet" style="swimlane;fontStyle=1;align=center;verticalAlign=top;childLayout=stackLayout;horizontal=1;startSize=26;horizontalStack=0;resizeParent=1;resizeParentMax=0;resizeLast=0;collapsible=1;marginBottom=0;whiteSpace=wrap;html=1;fillColor=#d5e8d4;strokeColor=#82b366;" vertex="1" parent="1">
          <mxGeometry x="60" width="160" height="86" as="geometry" />
        </mxCell>
        <mxCell id="H_SOr6fTUz821yDSNW8F-38" value="&amp;nbsp;" style="text;strokeColor=none;fillColor=none;align=left;verticalAlign=top;spacingLeft=4;spacingRight=4;overflow=hidden;rotatable=0;points=[[0,0.5],[1,0.5]];portConstraint=eastwest;whiteSpace=wrap;html=1;" vertex="1" parent="H_SOr6fTUz821yDSNW8F-37">
          <mxGeometry y="26" width="160" height="26" as="geometry" />
        </mxCell>
        <mxCell id="H_SOr6fTUz821yDSNW8F-39" value="" style="line;strokeWidth=1;fillColor=none;align=left;verticalAlign=middle;spacingTop=-1;spacingLeft=3;spacingRight=3;rotatable=0;labelPosition=right;points=[];portConstraint=eastwest;strokeColor=inherit;" vertex="1" parent="H_SOr6fTUz821yDSNW8F-37">
          <mxGeometry y="52" width="160" height="8" as="geometry" />
        </mxCell>
        <mxCell id="H_SOr6fTUz821yDSNW8F-40" value="&amp;nbsp;" style="text;strokeColor=none;fillColor=none;align=left;verticalAlign=top;spacingLeft=4;spacingRight=4;overflow=hidden;rotatable=0;points=[[0,0.5],[1,0.5]];portConstraint=eastwest;whiteSpace=wrap;html=1;" vertex="1" parent="H_SOr6fTUz821yDSNW8F-37">
          <mxGeometry y="60" width="160" height="26" as="geometry" />
        </mxCell>
        <mxCell id="H_SOr6fTUz821yDSNW8F-43" style="edgeStyle=orthogonalEdgeStyle;rounded=0;orthogonalLoop=1;jettySize=auto;html=1;endArrow=block;endFill=0;fillColor=#d5e8d4;strokeColor=#82b366;strokeWidth=2;endSize=10;" edge="1" parent="1" source="H_SOr6fTUz821yDSNW8F-25" target="H_SOr6fTUz821yDSNW8F-21">
          <mxGeometry relative="1" as="geometry">
            <mxPoint x="150" y="96" as="sourcePoint" />
            <mxPoint x="150" y="134" as="targetPoint" />
          </mxGeometry>
        </mxCell>
        <mxCell id="H_SOr6fTUz821yDSNW8F-44" style="edgeStyle=orthogonalEdgeStyle;rounded=0;orthogonalLoop=1;jettySize=auto;html=1;endArrow=block;endFill=0;fillColor=#d5e8d4;strokeColor=#82b366;strokeWidth=2;endSize=10;" edge="1" parent="1" source="H_SOr6fTUz821yDSNW8F-29" target="H_SOr6fTUz821yDSNW8F-21">
          <mxGeometry relative="1" as="geometry">
            <mxPoint x="360" y="96" as="sourcePoint" />
            <mxPoint x="360" y="134" as="targetPoint" />
          </mxGeometry>
        </mxCell>
        <mxCell id="H_SOr6fTUz821yDSNW8F-45" style="edgeStyle=orthogonalEdgeStyle;rounded=0;orthogonalLoop=1;jettySize=auto;html=1;endArrow=block;endFill=0;fillColor=#d5e8d4;strokeColor=#82b366;strokeWidth=2;endSize=10;" edge="1" parent="1" source="H_SOr6fTUz821yDSNW8F-33" target="H_SOr6fTUz821yDSNW8F-17">
          <mxGeometry relative="1" as="geometry">
            <mxPoint x="360" y="270" as="sourcePoint" />
            <mxPoint x="360" y="220" as="targetPoint" />
          </mxGeometry>
        </mxCell>
        <mxCell id="H_SOr6fTUz821yDSNW8F-50" style="edgeStyle=orthogonalEdgeStyle;rounded=0;orthogonalLoop=1;jettySize=auto;html=1;endArrow=open;endFill=0;strokeWidth=2;fillColor=#d5e8d4;strokeColor=#82b366;endSize=9;dashed=1;" edge="1" parent="1" source="H_SOr6fTUz821yDSNW8F-46" target="H_SOr6fTUz821yDSNW8F-29">
          <mxGeometry relative="1" as="geometry">
            <Array as="points">
              <mxPoint x="595" y="410" />
              <mxPoint x="350" y="410" />
            </Array>
          </mxGeometry>
        </mxCell>
        <mxCell id="H_SOr6fTUz821yDSNW8F-46" value="AppleToolFactory&lt;div&gt;&lt;br&gt;&lt;/div&gt;" style="swimlane;fontStyle=1;align=center;verticalAlign=top;childLayout=stackLayout;horizontal=1;startSize=26;horizontalStack=0;resizeParent=1;resizeParentMax=0;resizeLast=0;collapsible=1;marginBottom=0;whiteSpace=wrap;html=1;fillColor=#d5e8d4;strokeColor=#82b366;" vertex="1" parent="1">
          <mxGeometry x="500" y="260" width="190" height="120" as="geometry" />
        </mxCell>
        <mxCell id="H_SOr6fTUz821yDSNW8F-47" value="&amp;nbsp;" style="text;strokeColor=none;fillColor=none;align=left;verticalAlign=top;spacingLeft=4;spacingRight=4;overflow=hidden;rotatable=0;points=[[0,0.5],[1,0.5]];portConstraint=eastwest;whiteSpace=wrap;html=1;" vertex="1" parent="H_SOr6fTUz821yDSNW8F-46">
          <mxGeometry y="26" width="190" height="26" as="geometry" />
        </mxCell>
        <mxCell id="H_SOr6fTUz821yDSNW8F-48" value="" style="line;strokeWidth=1;fillColor=none;align=left;verticalAlign=middle;spacingTop=-1;spacingLeft=3;spacingRight=3;rotatable=0;labelPosition=right;points=[];portConstraint=eastwest;strokeColor=inherit;" vertex="1" parent="H_SOr6fTUz821yDSNW8F-46">
          <mxGeometry y="52" width="190" height="8" as="geometry" />
        </mxCell>
        <mxCell id="H_SOr6fTUz821yDSNW8F-49" value="+ CreatePhone(): ApplePhone&lt;div&gt;+ CreateTablet(): AppleTablet&lt;/div&gt;" style="text;strokeColor=none;fillColor=none;align=left;verticalAlign=top;spacingLeft=4;spacingRight=4;overflow=hidden;rotatable=0;points=[[0,0.5],[1,0.5]];portConstraint=eastwest;whiteSpace=wrap;html=1;" vertex="1" parent="H_SOr6fTUz821yDSNW8F-46">
          <mxGeometry y="60" width="190" height="60" as="geometry" />
        </mxCell>
        <mxCell id="H_SOr6fTUz821yDSNW8F-51" style="edgeStyle=orthogonalEdgeStyle;rounded=0;orthogonalLoop=1;jettySize=auto;html=1;endArrow=open;endFill=0;strokeWidth=2;fillColor=#d5e8d4;strokeColor=#82b366;endSize=9;dashed=1;" edge="1" parent="1" source="H_SOr6fTUz821yDSNW8F-46" target="H_SOr6fTUz821yDSNW8F-33">
          <mxGeometry relative="1" as="geometry">
            <mxPoint x="605" y="390" as="sourcePoint" />
            <mxPoint x="360" y="356" as="targetPoint" />
            <Array as="points">
              <mxPoint x="595" y="410" />
              <mxPoint x="130" y="410" />
            </Array>
          </mxGeometry>
        </mxCell>
        <mxCell id="H_SOr6fTUz821yDSNW8F-53" style="edgeStyle=orthogonalEdgeStyle;rounded=0;orthogonalLoop=1;jettySize=auto;html=1;endArrow=open;endFill=0;strokeWidth=2;fillColor=#d5e8d4;strokeColor=#82b366;endSize=9;dashed=1;" edge="1" parent="1" target="H_SOr6fTUz821yDSNW8F-25">
          <mxGeometry relative="1" as="geometry">
            <mxPoint x="595" y="-50" as="sourcePoint" />
            <mxPoint x="140" y="356" as="targetPoint" />
            <Array as="points">
              <mxPoint x="595" y="-90" />
              <mxPoint x="350" y="-90" />
            </Array>
          </mxGeometry>
        </mxCell>
        <mxCell id="H_SOr6fTUz821yDSNW8F-56" value="SamsungToolFactory&lt;div&gt;&lt;br&gt;&lt;/div&gt;" style="swimlane;fontStyle=1;align=center;verticalAlign=top;childLayout=stackLayout;horizontal=1;startSize=26;horizontalStack=0;resizeParent=1;resizeParentMax=0;resizeLast=0;collapsible=1;marginBottom=0;whiteSpace=wrap;html=1;fillColor=#d5e8d4;strokeColor=#82b366;" vertex="1" parent="1">
          <mxGeometry x="500" y="-50" width="200" height="120" as="geometry" />
        </mxCell>
        <mxCell id="H_SOr6fTUz821yDSNW8F-57" value="&amp;nbsp;" style="text;strokeColor=none;fillColor=none;align=left;verticalAlign=top;spacingLeft=4;spacingRight=4;overflow=hidden;rotatable=0;points=[[0,0.5],[1,0.5]];portConstraint=eastwest;whiteSpace=wrap;html=1;" vertex="1" parent="H_SOr6fTUz821yDSNW8F-56">
          <mxGeometry y="26" width="200" height="26" as="geometry" />
        </mxCell>
        <mxCell id="H_SOr6fTUz821yDSNW8F-58" value="" style="line;strokeWidth=1;fillColor=none;align=left;verticalAlign=middle;spacingTop=-1;spacingLeft=3;spacingRight=3;rotatable=0;labelPosition=right;points=[];portConstraint=eastwest;strokeColor=inherit;" vertex="1" parent="H_SOr6fTUz821yDSNW8F-56">
          <mxGeometry y="52" width="200" height="8" as="geometry" />
        </mxCell>
        <mxCell id="H_SOr6fTUz821yDSNW8F-59" value="+ CreatePhone(): SamsungPhone&lt;div&gt;+ CreateTablet(): SamsungTablet&lt;/div&gt;" style="text;strokeColor=none;fillColor=none;align=left;verticalAlign=top;spacingLeft=4;spacingRight=4;overflow=hidden;rotatable=0;points=[[0,0.5],[1,0.5]];portConstraint=eastwest;whiteSpace=wrap;html=1;" vertex="1" parent="H_SOr6fTUz821yDSNW8F-56">
          <mxGeometry y="60" width="200" height="60" as="geometry" />
        </mxCell>
        <mxCell id="H_SOr6fTUz821yDSNW8F-61" style="edgeStyle=orthogonalEdgeStyle;rounded=0;orthogonalLoop=1;jettySize=auto;html=1;endArrow=open;endFill=0;strokeWidth=2;fillColor=#d5e8d4;strokeColor=#82b366;endSize=9;dashed=1;" edge="1" parent="1" source="H_SOr6fTUz821yDSNW8F-56" target="H_SOr6fTUz821yDSNW8F-37">
          <mxGeometry relative="1" as="geometry">
            <mxPoint x="605" y="-40" as="sourcePoint" />
            <mxPoint x="360" y="10" as="targetPoint" />
            <Array as="points">
              <mxPoint x="595" y="-90" />
              <mxPoint x="140" y="-90" />
            </Array>
          </mxGeometry>
        </mxCell>
        <mxCell id="H_SOr6fTUz821yDSNW8F-62" style="edgeStyle=orthogonalEdgeStyle;rounded=0;orthogonalLoop=1;jettySize=auto;html=1;endArrow=block;endFill=0;fillColor=#d5e8d4;strokeColor=#82b366;strokeWidth=2;endSize=10;" edge="1" parent="1" source="H_SOr6fTUz821yDSNW8F-46" target="H_SOr6fTUz821yDSNW8F-13">
          <mxGeometry relative="1" as="geometry">
            <mxPoint x="360" y="270" as="sourcePoint" />
            <mxPoint x="360" y="220" as="targetPoint" />
          </mxGeometry>
        </mxCell>
        <mxCell id="H_SOr6fTUz821yDSNW8F-63" style="edgeStyle=orthogonalEdgeStyle;rounded=0;orthogonalLoop=1;jettySize=auto;html=1;endArrow=block;endFill=0;fillColor=#d5e8d4;strokeColor=#82b366;strokeWidth=2;endSize=10;" edge="1" parent="1" source="H_SOr6fTUz821yDSNW8F-59" target="H_SOr6fTUz821yDSNW8F-13">
          <mxGeometry relative="1" as="geometry">
            <mxPoint x="360" y="96" as="sourcePoint" />
            <mxPoint x="360" y="134" as="targetPoint" />
            <Array as="points">
              <mxPoint x="600" y="80" />
              <mxPoint x="600" y="80" />
            </Array>
          </mxGeometry>
        </mxCell>
      </root>
    </mxGraphModel>
  </diagram>
</mxfile>
